<svg width="203.49mm" height="203.49mm" version="1.1" viewBox="0 0 769.1 769.1" xmlns="http://www.w3.org/2000/svg">
 <g transform="translate(-88.312 623.83)" style="display:none">
  <g transform="matrix(.16 0 0 .16 79.453 629.46)" style="display:inline">
   <rect x="451.03" y="604.86" width="188.98" height="191.03" ry="12.799" style="fill:#4c2004;stroke-width:8.497"/>
   <text x="494.91064" y="767.2627" style="fill:#e2a13e;font-size:11.61px;stroke-width:10.97" xml:space="preserve"><tspan x="494.91064" y="767.2627" style="fill:#e2a13e;font-family:Roboto;font-size:185.76px;font-variant-caps:normal;font-variant-east-asian:normal;font-variant-ligatures:normal;font-variant-numeric:normal;stroke-width:10.97">9</tspan></text>
  </g>
  <g transform="matrix(1.28 0 0 1.28 -350.56 -263)" style="display:inline">
   <rect x="451.03" y="604.86" width="188.98" height="191.03" ry="12.799" style="fill:#4c2004;stroke-width:8.497"/>
   <text x="494.91064" y="767.2627" style="fill:#e2a13e;font-size:11.61px;stroke-width:10.97" xml:space="preserve"><tspan x="494.91064" y="767.2627" style="fill:#e2a13e;font-family:Roboto;font-size:185.76px;font-variant-caps:normal;font-variant-east-asian:normal;font-variant-ligatures:normal;font-variant-numeric:normal;stroke-width:10.97">9</tspan></text>
  </g>
  <rect x="126.19" y="-585.87" width="188.98" height="340.16" ry="22.791" style="fill:#4c2004;stroke-width:11.339"/>
  <rect x="352.95" y="-585.81" width="188.98" height="340.16" ry="22.791" style="fill:#4c2004;stroke-width:11.339"/>
  <path d="m364.49-510.21 165.04-0.78588" style="fill:none;stroke-width:4;stroke:#e2a13e"/>
  <g transform="matrix(.91706 0 0 .91706 -39.016 -691.55)">
   <text x="199.60342" y="401.83304" style="display:inline;fill:#ffffff;font-family:Roboto;font-size:20.298px;font-variant-caps:normal;font-variant-east-asian:normal;font-variant-ligatures:normal;font-variant-numeric:normal;font-weight:300;line-height:23.1975px;stroke-width:12.33" xml:space="preserve"><tspan x="199.60342" y="401.83304" style="font-family:Roboto;font-size:20.298px;font-variant-caps:normal;font-variant-east-asian:normal;font-variant-ligatures:normal;font-variant-numeric:normal;font-weight:300;line-height:23.1975px;stroke-width:12.33">Design  Branding </tspan><tspan x="199.60342" y="425.03055" style="font-family:Roboto;font-size:20.298px;font-variant-caps:normal;font-variant-east-asian:normal;font-variant-ligatures:normal;font-variant-numeric:normal;font-weight:300;line-height:23.1975px;stroke-width:12.33">&amp; Marketing Studio</tspan></text>
   <g transform="matrix(.6573 0 0 .6573 25.521 -26.744)" style="display:inline">
    <text x="244.35464" y="601.09155" style="fill:#e2a13e;font-size:25.894px;stroke-width:24.466" xml:space="preserve"><tspan x="244.35464" y="601.09155" style="fill:#e2a13e;font-family:Roboto;font-size:414.3px;font-variant-caps:normal;font-variant-east-asian:normal;font-variant-ligatures:normal;font-variant-numeric:normal;stroke-width:24.466">9</tspan></text>
    <text x="418.84171" y="602.19849" style="fill:#ffffff;font-family:Roboto;font-size:269.87px;font-variant-caps:normal;font-variant-east-asian:normal;font-variant-ligatures:normal;font-variant-numeric:normal;stroke-width:15.937" xml:space="preserve"><tspan x="418.84171" y="602.19849" style="fill:#ffffff;font-family:Roboto;font-size:74.963px;font-variant-caps:normal;font-variant-east-asian:normal;font-variant-ligatures:normal;font-variant-numeric:normal;stroke-width:15.937">em</tspan></text>
   </g>
  </g>
  <g transform="matrix(1.098 0 0 1.098 -112.57 -713.91)">
   <text x="439.48648" y="158.8333" style="fill:#ffffff;font-family:Roboto;font-size:27.162px;font-variant-caps:normal;font-variant-east-asian:normal;font-variant-ligatures:normal;font-variant-numeric:normal;line-height:40.7433px;stroke-width:23.099" xml:space="preserve"><tspan x="439.48648" y="158.8333" style="font-family:Roboto;font-size:27.162px;font-variant-caps:normal;font-variant-east-asian:normal;font-variant-ligatures:normal;font-variant-numeric:normal;stroke-width:23.099">Zayno Lane</tspan></text>
   <text x="440.09421" y="177.60944" style="fill:#ffffff;font-family:Roboto;font-size:12.667px;font-variant-caps:normal;font-variant-east-asian:normal;font-variant-ligatures:normal;font-variant-numeric:normal;line-height:20px;stroke-width:4;stroke:#e2a13e" xml:space="preserve"><tspan x="440.09421" y="177.60944" style="font-family:Roboto;font-size:12.667px;font-variant-caps:normal;font-variant-east-asian:normal;font-variant-ligatures:normal;font-variant-numeric:normal;stroke:none">Graphic UI/UX Developer</tspan></text>
  </g>
  <text x="368.4628" y="-241.98602" style="fill:#e2a13e;font-size:21.776px;opacity:.25485;stroke-width:20.575" xml:space="preserve"><tspan x="368.4628" y="-241.98602" style="fill:#e2a13e;font-family:Roboto;font-size:348.41px;font-variant-caps:normal;font-variant-east-asian:normal;font-variant-ligatures:normal;font-variant-numeric:normal;stroke-width:20.575">9</tspan></text>
  <text x="370.45035" y="-477.41821" style="fill:#ffffff;font-family:Roboto;font-size:12.667px;font-variant-caps:normal;font-variant-east-asian:normal;font-variant-ligatures:normal;font-variant-numeric:normal;line-height:20px;stroke-width:4" xml:space="preserve"><tspan x="370.45035" y="-477.41821">T. (+5999) 6777274</tspan><tspan x="370.45035" y="-457.41821">E. 9emdesign@gmail.com</tspan><tspan x="370.45035" y="-437.41821">W. <tspan style="font-family:Sans;font-size:10.667px;font-variant-caps:normal;font-variant-east-asian:normal;font-variant-ligatures:normal;font-variant-numeric:normal">http://9emdesign.github.io</tspan></tspan></text>
 </g>
 <g transform="translate(-88.312 623.83)">
  <g transform="matrix(.6573 0 0 .6573 -31.208 -813.85)">
   <rect x="181.83" y="289.1" width="1170.1" height="1170.1" style="fill:#4c2004;stroke-width:34.313"/>
   <g transform="matrix(3.9167 0 0 3.9167 -342.23 -303.58)">
    <g style="fill:#fff;stroke-width:12.33" aria-label="Design  Branding 
&amp; Marketing Studio">
     <path d="m201.43 401.83v-14.431h4.0338q1.7741 0 3.1815 0.81271 1.4074 0.8028 2.1904 2.3093 0.79289 1.5065 0.79289 3.4292v1.3281q0 1.9327-0.78298 3.4292-0.78297 1.4966-2.2102 2.3093-1.4173 0.81271-3.2608 0.81271zm1.2191-13.39v12.359h2.7355q2.2796 0 3.6572-1.5065 1.3776-1.5164 1.3776-4.0933v-1.2686q0-2.4877-1.3578-3.9842t-3.5779-1.5065zm15.947 13.588q-1.3677 0-2.4778-0.67395-1.1001-0.67396-1.7146-1.8732-0.61449-1.2092-0.61449-2.7057v-0.42618q0-1.5461 0.59467-2.785 0.60458-1.2389 1.675-1.9426 1.0704-0.7136 2.3192-0.7136 1.9525 0 3.0922 1.338 1.1497 1.3281 1.1497 3.6374v0.66404h-7.6514v0.22796q0 1.8236 1.0407 3.0427 1.0506 1.2092 2.6364 1.2092 0.95146 0 1.675-0.34689 0.73342-0.34689 1.3281-1.11l0.74334 0.56493q-1.3083 1.893-3.796 1.893zm-0.21804-10.109q-1.338 0-2.2597 0.9812-0.91182 0.9812-1.11 2.6364h6.4323v-0.12884q-0.0496-1.5461-0.88209-2.5174-0.83253-0.97129-2.1804-0.97129zm12.974 7.1855q0-0.88209-0.71359-1.4173-0.70369-0.5352-2.1309-0.83254-1.4272-0.30724-2.2201-0.69377-0.78297-0.39644-1.1695-0.96138-0.37662-0.56493-0.37662-1.3677 0-1.2686 1.0605-2.0912 1.0605-0.83254 2.7156-0.83254 1.7939 0 2.8742 0.892 1.0902 0.88209 1.0902 2.3093h-1.1893q0-0.94155-0.79289-1.566-0.78297-0.6244-1.9822-0.6244-1.1695 0-1.8831 0.52529-0.70369 0.51538-0.70369 1.3479 0 0.8028 0.58476 1.2488 0.59466 0.43608 2.1507 0.80279 1.566 0.36671 2.339 0.78298 0.78297 0.41626 1.1596 1.001 0.37662 0.58475 0.37662 1.4173 0 1.3578-1.1001 2.1705-1.0902 0.81271-2.8544 0.81271-1.8732 0-3.0427-0.90191-1.1596-0.91182-1.1596-2.2994h1.1893q0.0694 1.0407 0.87218 1.6254 0.81271 0.57484 2.1408 0.57484 1.2389 0 2.002-0.54511t0.76315-1.3776zm5.1835 2.7256h-1.1893v-10.724h1.1893zm-1.3975-13.826q0-0.33698 0.21804-0.56494 0.21804-0.23786 0.59467-0.23786 0.37662 0 0.59466 0.23786 0.22796 0.22796 0.22796 0.56494 0 0.33697-0.22796 0.56493-0.21804 0.22795-0.59466 0.22795-0.37663 0-0.59467-0.22795-0.21804-0.22796-0.21804-0.56493zm4.1428 8.365q0-2.5174 1.11-3.9842 1.12-1.4768 3.0328-1.4768 2.1904 0 3.3301 1.7444l0.0595-1.5461h1.11v10.506q0 2.0714-1.1596 3.2806-1.1596 1.2092-3.1418 1.2092-1.12 0-2.1408-0.50547-1.0109-0.49555-1.5957-1.3281l0.66404-0.71359q1.2587 1.5461 2.9932 1.5461 1.4867 0 2.3192-0.88209 0.83253-0.87218 0.86227-2.4282v-1.3479q-1.1398 1.5858-3.3202 1.5858-1.8633 0-2.9931-1.4867-1.1299-1.4867-1.1299-4.014zm1.1992 0.20813q0 2.0516 0.82262 3.2409 0.82262 1.1794 2.3192 1.1794 2.1904 0 3.1022-1.9624v-4.9853q-0.41627-1.0308-1.1992-1.566-0.78298-0.54511-1.8831-0.54511-1.4966 0-2.3291 1.1794-0.83254 1.1695-0.83254 3.459zm11.665-5.4709 0.0396 1.8336q0.60458-0.99111 1.5065-1.5065 0.90191-0.52529 1.9921-0.52529 1.7245 0 2.567 0.97129t0.85235 2.9139v7.0369h-1.1794v-7.0468q-0.01-1.4371-0.61449-2.1408-0.59466-0.70368-1.9128-0.70368-1.1001 0-1.9525 0.69377-0.84244 0.68387-1.2488 1.8534v7.3441h-1.1794v-10.724zm20.169 10.724v-14.431h4.2618q2.3192 0 3.5184 0.96138 1.1992 0.95146 1.1992 2.8147 0 1.12-0.61449 1.9525-0.60458 0.82262-1.6651 1.1794 1.2587 0.27751 2.0219 1.2389 0.77306 0.96138 0.77306 2.2201 0 1.9128-1.2389 2.9932-1.229 1.0704-3.4292 1.0704zm1.2191-6.9378v5.907h3.6572q1.566 0 2.4778-0.79289 0.92173-0.8028 0.92173-2.2201 0-1.338-0.88209-2.1111-0.87217-0.78298-2.4183-0.78298zm0-1.0208h3.3301q1.5263-0.0297 2.3588-0.7136 0.84244-0.69378 0.84244-2.012 0-1.3876-0.87217-2.0417-0.86227-0.66405-2.6165-0.66405h-3.0427zm15.897-1.7543q-0.37662-0.0694-0.80279-0.0694-1.11 0-1.8831 0.6244-0.76315 0.61448-1.0902 1.7939v7.3639h-1.1794v-10.724h1.1596l0.0198 1.7047q0.94155-1.9029 3.0229-1.9029 0.49556 0 0.78298 0.12885zm8.246 9.7129q-0.1784-0.50547-0.22796-1.4966-0.62439 0.81271-1.5957 1.2587-0.96138 0.43609-2.0417 0.43609-1.5461 0-2.5075-0.86226-0.95146-0.86227-0.95146-2.1804 0-1.566 1.2984-2.4778 1.3083-0.91182 3.6374-0.91182h2.1507v-1.2191q0-1.1497-0.71359-1.8038-0.70369-0.66405-2.0615-0.66405-1.2389 0-2.0516 0.63431-0.81271 0.63431-0.81271 1.5263l-1.1893-0.01q0-1.2785 1.1893-2.2102 1.1893-0.94156 2.9238-0.94156 1.7939 0 2.8247 0.90191 1.0407 0.892 1.0704 2.4976v5.0745q0 1.556 0.32707 2.3291v0.11893zm-3.7266-0.85235q1.1893 0 2.121-0.57485 0.94156-0.57484 1.3677-1.5362v-2.3588h-2.121q-1.7741 0.0198-2.7751 0.65413-1.001 0.6244-1.001 1.7245 0 0.90191 0.66404 1.4966 0.67395 0.59467 1.7444 0.59467zm8.9596-9.8714 0.0396 1.8336q0.60457-0.99111 1.5065-1.5065 0.90191-0.52529 1.9921-0.52529 1.7245 0 2.567 0.97129t0.85236 2.9139v7.0369h-1.1794v-7.0468q-0.01-1.4371-0.61449-2.1408-0.59467-0.70368-1.9128-0.70368-1.1001 0-1.9525 0.69377-0.84245 0.68387-1.2488 1.8534v7.3441h-1.1794v-10.724zm9.5444 5.2628q0-2.4976 1.11-3.9743 1.12-1.4867 3.0328-1.4867 2.1705 0 3.3103 1.7146v-6.016h1.1794v15.223h-1.11l-0.0496-1.4272q-1.1398 1.6254-3.35 1.6254-1.8534 0-2.9932-1.4867-1.1299-1.4966-1.1299-4.0338zm1.1992 0.20813q0 2.0516 0.82262 3.2409 0.82262 1.1794 2.3192 1.1794 2.1904 0 3.1121-1.9327v-5.0348q-0.92173-2.0912-3.0922-2.0912-1.4966 0-2.3291 1.1794-0.83253 1.1695-0.83253 3.459zm11.883 5.2529h-1.1893v-10.724h1.1893zm-1.3975-13.826q0-0.33698 0.21804-0.56494 0.21805-0.23786 0.59467-0.23786t0.59466 0.23786q0.22796 0.22796 0.22796 0.56494 0 0.33697-0.22796 0.56493-0.21804 0.22795-0.59466 0.22795t-0.59467-0.22795q-0.21804-0.22796-0.21804-0.56493zm5.7484 3.1022 0.0396 1.8336q0.60458-0.99111 1.5065-1.5065 0.90191-0.52529 1.9921-0.52529 1.7245 0 2.567 0.97129 0.84244 0.97129 0.85235 2.9139v7.0369h-1.1794v-7.0468q-0.01-1.4371-0.61449-2.1408-0.59466-0.70368-1.9128-0.70368-1.1001 0-1.9525 0.69377-0.84244 0.68387-1.2488 1.8534v7.3441h-1.1794v-10.724zm9.5444 5.2628q0-2.5174 1.11-3.9842 1.12-1.4768 3.0328-1.4768 2.1904 0 3.3301 1.7444l0.0595-1.5461h1.11v10.506q0 2.0714-1.1596 3.2806-1.1596 1.2092-3.1418 1.2092-1.12 0-2.1408-0.50547-1.0109-0.49555-1.5957-1.3281l0.66404-0.71359q1.2587 1.5461 2.9932 1.5461 1.4867 0 2.3192-0.88209 0.83253-0.87218 0.86227-2.4282v-1.3479q-1.1398 1.5858-3.3202 1.5858-1.8633 0-2.9931-1.4867-1.1299-1.4867-1.1299-4.014zm1.1992 0.20813q0 2.0516 0.82262 3.2409 0.82262 1.1794 2.3192 1.1794 2.1904 0 3.1022-1.9624v-4.9853q-0.41627-1.0308-1.1992-1.566-0.78298-0.54511-1.8831-0.54511-1.4966 0-2.3291 1.1794-0.83254 1.1695-0.83254 3.459z"/>
     <path d="m203.61 417.16q-0.86226-1.0407-1.2587-1.8534-0.38653-0.82262-0.38653-1.6254 0-1.5164 0.90191-2.3985 0.90191-0.88209 2.4183-0.88209 1.3776 0 2.23 0.8028 0.85235 0.79288 0.85235 2.0219 0 1.4272-1.6452 2.8048l-1.5858 1.229 3.9644 4.6186q0.90191-1.4569 0.90191-3.3004h1.1001q0 2.458-1.2686 4.1528l1.9723 2.2994h-1.4272l-1.2488-1.447q-0.78298 0.77307-1.8137 1.2092-1.0208 0.43609-2.1606 0.43609-2.0615 0-3.2707-1.0506-1.2092-1.0605-1.2092-2.8247 0-1.0506 0.61449-1.9822 0.6244-0.94155 2.1804-2.1111zm1.5461 7.0666q0.90191 0 1.7444-0.37662 0.85235-0.38653 1.5263-1.0902l-4.0338-4.678-0.13876-0.14867-0.45591 0.34689q-1.9426 1.5858-1.9426 3.0724 0 1.2984 0.892 2.0912 0.892 0.78297 2.4084 0.78297zm-2.002-10.585q0 1.2092 1.338 2.8544l1.2984-0.99111q0.63431-0.45591 1.0407-1.001 0.40636-0.54511 0.40636-1.2785 0-0.77307-0.5352-1.2884-0.5352-0.52529-1.4272-0.52529-0.97128 0-1.5461 0.6244-0.57484 0.6244-0.57484 1.6056zm17.315-3.0427 5.3222 12.736 5.3421-12.736h1.6254v14.431h-1.2191v-6.2836l0.0991-6.4422-5.3718 12.726h-0.94155l-5.352-12.676 0.0991 6.353v6.3233h-1.2191v-14.431zm22.439 14.431q-0.1784-0.50547-0.22796-1.4966-0.62439 0.8127-1.5957 1.2587-0.96138 0.43609-2.0417 0.43609-1.5461 0-2.5075-0.86226-0.95146-0.86227-0.95146-2.1804 0-1.566 1.2984-2.4778 1.3083-0.91182 3.6374-0.91182h2.1507v-1.2191q0-1.1497-0.71359-1.8038-0.70369-0.66405-2.0615-0.66405-1.2389 0-2.0516 0.63431-0.81271 0.63431-0.81271 1.5263l-1.1893-0.01q0-1.2785 1.1893-2.2102 1.1893-0.94155 2.9238-0.94155 1.7939 0 2.8247 0.9019 1.0407 0.892 1.0704 2.4976v5.0745q0 1.556 0.32707 2.3291v0.11893zm-3.7266-0.85235q1.1893 0 2.121-0.57485 0.94156-0.57484 1.3677-1.5362v-2.3588h-2.121q-1.7741 0.0198-2.7751 0.65413-1.001 0.6244-1.001 1.7245 0 0.90191 0.66404 1.4966 0.67395 0.59467 1.7444 0.59467zm12.785-8.8605q-0.37662-0.0694-0.8028-0.0694-1.11 0-1.8831 0.6244-0.76316 0.61449-1.0902 1.7939v7.3639h-1.1794v-10.724h1.1596l0.0198 1.7047q0.94155-1.9029 3.0229-1.9029 0.49555 0 0.78297 0.12884zm4.4203 4.3113-1.3578 1.3083v4.0933h-1.1893v-15.223h1.1893v9.7426l1.12-1.2092 4.1032-4.0338h1.4966l-4.5492 4.5194 4.9456 6.2043h-1.4173zm11.348 5.5998q-1.3677 0-2.4778-0.67395-1.1001-0.67396-1.7146-1.8732-0.61449-1.2092-0.61449-2.7057v-0.42618q0-1.5461 0.59466-2.785 0.60458-1.2389 1.675-1.9426 1.0704-0.71359 2.3192-0.71359 1.9525 0 3.0923 1.338 1.1497 1.3281 1.1497 3.6374v0.66404h-7.6514v0.22796q0 1.8236 1.0407 3.0427 1.0506 1.2092 2.6364 1.2092 0.95146 0 1.675-0.34689 0.73342-0.34688 1.3281-1.11l0.74333 0.56493q-1.3083 1.893-3.796 1.893zm-0.21804-10.109q-1.338 0-2.2597 0.98119-0.91182 0.9812-1.11 2.6364h6.4323v-0.12884q-0.0496-1.5461-0.88208-2.5174-0.83253-0.97128-2.1804-0.97128zm8.3947-3.5581v2.7454h2.2201v0.97128h-2.2201v7.1459q0 0.892 0.31716 1.3281 0.32707 0.43609 1.0803 0.43609 0.29733 0 0.96137-0.0991l0.0496 0.97128q-0.46582 0.16849-1.2686 0.16849-1.2191 0-1.7741-0.70369-0.55503-0.71359-0.55503-2.0912v-7.1558h-1.9723v-0.97128h1.9723v-2.7454zm6.0061 13.469h-1.1893v-10.724h1.1893zm-1.3975-13.826q0-0.33698 0.21804-0.56493 0.21805-0.23787 0.59467-0.23787t0.59466 0.23787q0.22796 0.22795 0.22796 0.56493 0 0.33697-0.22796 0.56493-0.21804 0.22795-0.59466 0.22795t-0.59467-0.22795q-0.21804-0.22796-0.21804-0.56493zm5.7484 3.1022 0.0396 1.8336q0.60457-0.99111 1.5065-1.5065 0.90191-0.52528 1.9921-0.52528 1.7245 0 2.567 0.97128 0.84244 0.97129 0.85235 2.9139v7.0369h-1.1794v-7.0468q-0.01-1.4371-0.61448-2.1408-0.59467-0.70368-1.9128-0.70368-1.1001 0-1.9525 0.69377-0.84245 0.68387-1.2488 1.8534v7.3441h-1.1794v-10.724zm9.5444 5.2628q0-2.5174 1.11-3.9842 1.12-1.4768 3.0328-1.4768 2.1904 0 3.3301 1.7444l0.0595-1.5461h1.11v10.506q0 2.0714-1.1596 3.2806-1.1596 1.2092-3.1418 1.2092-1.12 0-2.1408-0.50547-1.0109-0.49555-1.5957-1.3281l0.66404-0.7136q1.2587 1.5461 2.9932 1.5461 1.4867 0 2.3192-0.88209 0.83253-0.87217 0.86226-2.4282v-1.3479q-1.1398 1.5858-3.3202 1.5858-1.8633 0-2.9932-1.4867-1.1299-1.4867-1.1299-4.014zm1.1992 0.20813q0 2.0516 0.82262 3.2409 0.82262 1.1794 2.3192 1.1794 2.1904 0 3.1022-1.9624v-4.9853q-0.41626-1.0308-1.1992-1.566-0.78297-0.54511-1.8831-0.54511-1.4966 0-2.3291 1.1794-0.83253 1.1695-0.83253 3.459zm23.915 1.7047q0-1.1992-0.84245-1.893-0.84244-0.70368-3.0823-1.3281-2.2399-0.63431-3.2707-1.3776-1.4668-1.0506-1.4668-2.7553 0-1.6552 1.3578-2.6859 1.3677-1.0407 3.4887-1.0407 1.4371 0 2.567 0.55502 1.1398 0.55502 1.7642 1.5461t0.6244 2.2102h-1.229q0-1.4768-1.0109-2.3688-1.0109-0.90191-2.7156-0.90191-1.6552 0-2.6364 0.74333-0.9812 0.73343-0.9812 1.9228 0 1.1001 0.88209 1.7939 0.88209 0.69378 2.8247 1.229 1.9426 0.52528 2.9436 1.1001 1.001 0.56493 1.5065 1.3578 0.50546 0.79289 0.50546 1.8732 0 1.7047-1.3677 2.7355-1.3578 1.0308-3.5878 1.0308-1.5263 0-2.8048-0.54511-1.2686-0.54511-1.9327-1.5263-0.65413-0.98119-0.65413-2.2498h1.2191q0 1.5263 1.1398 2.4084 1.1398 0.88209 3.0328 0.88209 1.6849 0 2.7057-0.74333 1.0208-0.74333 1.0208-1.9723zm5.4214-9.921v2.7454h2.2201v0.97128h-2.2201v7.1459q0 0.892 0.31716 1.3281 0.32706 0.43609 1.0803 0.43609 0.29733 0 0.96137-0.0991l0.0496 0.97128q-0.46583 0.16849-1.2686 0.16849-1.2191 0-1.7741-0.70369-0.55502-0.71359-0.55502-2.0912v-7.1558h-1.9723v-0.97128h1.9723v-2.7454zm11.576 12.111q-1.0704 1.556-3.4193 1.556-1.7146 0-2.6066-0.99111-0.892-1.001-0.91182-2.9535v-6.9774h1.1794v6.8287q0 3.0625 2.4778 3.0625 2.5769 0 3.2607-2.1309v-7.7604h1.1893v10.724h-1.1497zm3.7761-4.1032q0-2.4976 1.11-3.9743 1.12-1.4867 3.0328-1.4867 2.1705 0 3.3103 1.7146v-6.016h1.1794v15.223h-1.11l-0.0496-1.4272q-1.1398 1.6254-3.35 1.6254-1.8534 0-2.9931-1.4867-1.1299-1.4966-1.1299-4.0338zm1.1992 0.20813q0 2.0516 0.82262 3.2409 0.82262 1.1794 2.3192 1.1794 2.1904 0 3.1121-1.9327v-5.0348q-0.92173-2.0912-3.0923-2.0912-1.4966 0-2.3291 1.1794-0.83253 1.1695-0.83253 3.459zm11.883 5.2529h-1.1893v-10.724h1.1893zm-1.3975-13.826q0-0.33698 0.21805-0.56493 0.21804-0.23787 0.59466-0.23787t0.59467 0.23787q0.22795 0.22795 0.22795 0.56493 0 0.33697-0.22795 0.56493-0.21805 0.22795-0.59467 0.22795t-0.59466-0.22795q-0.21805-0.22796-0.21805-0.56493zm3.9644 8.3055q0-1.5461 0.59466-2.785 0.60458-1.2389 1.6948-1.9228 1.1001-0.69377 2.4877-0.69377 2.1408 0 3.4689 1.5065 1.3281 1.4966 1.3281 3.9743v0.24778q0 1.556-0.60457 2.8048-0.59467 1.2389-1.6849 1.9128-1.0902 0.67395-2.4877 0.67395-2.1309 0-3.4689-1.4966-1.3281-1.5065-1.3281-3.9843zm1.1893 0.32706q0 1.9228 0.9911 3.1616 1.001 1.229 2.6165 1.229 1.6056 0 2.5967-1.229 1.001-1.2389 1.001-3.2608v-0.22795q0-1.229-0.45591-2.2498t-1.2785-1.5759q-0.82262-0.56493-1.8831-0.56493-1.5858 0-2.5868 1.2488-1.001 1.2389-1.001 3.2508z"/>
    </g>
    <g transform="matrix(.6573 0 0 .6573 25.521 -26.744)">
     <path d="m412.26 471.62q-11.733 13.958-28.119 22.455-16.184 8.4964-35.604 8.4964-25.489 0-44.505-12.542-18.813-12.542-29.13-35.199-10.317-22.859-10.317-50.371 0-29.535 11.126-53.203 11.328-23.668 31.963-36.211 20.634-12.542 48.146-12.542 43.696 0 68.78 32.772 25.287 32.569 25.287 89.01v10.924q0 85.975-33.985 125.62-33.985 39.447-102.56 40.459h-7.2826v-31.558h7.8895q46.325-0.80917 71.208-24.073 24.882-23.466 27.107-74.04zm-57.654 0q18.813 0 34.592-11.531 15.981-11.531 23.264-28.524v-14.97q0-36.818-15.981-59.879t-40.459-23.062q-24.68 0-39.65 19.016-14.97 18.813-14.97 49.764 0 30.142 14.363 49.764 14.565 19.42 38.841 19.42z" style="fill:#e2a13e;stroke-width:24.466" aria-label="9"/>
     <path d="m440.4 602.93q-8.0526 0-13.104-5.2708-5.0512-5.3074-5.0512-14.165v-1.2445q0-5.8931 2.2328-10.505 2.2694-4.6486 6.2957-7.2474 4.0629-2.6354 8.7847-2.6354 7.7232 0 12.006 5.0878 4.2826 5.0878 4.2826 14.568v2.8184h-26.83q0.14641 5.8565 3.4041 9.4802 3.2943 3.5871 8.3455 3.5871 3.5871 0 6.0761-1.4641 2.489-1.4641 4.3557-3.8799l4.1361 3.2211q-4.978 7.65-14.934 7.65zm-0.84187-35.505q-4.0995 0-6.8814 3.0014-2.7818 2.9648-3.4407 8.3455h19.839v-0.51244q-0.29282-5.161-2.7818-7.9794-2.489-2.855-6.7349-2.855zm30.49-4.8316 0.18301 4.3924q4.3558-5.1244 11.75-5.1244 8.3089 0 11.31 6.3689 1.9766-2.855 5.1244-4.612 3.1844-1.7569 7.5036-1.7569 13.031 0 13.25 13.799v26.537h-6.7716v-26.134q0-4.2459-1.94-6.3323-1.94-2.123-6.5153-2.123-3.7701 0-6.2591 2.2694-2.489 2.2328-2.8916 6.0395v26.281h-6.8082v-25.951q0-8.6383-8.4553-8.6383-6.6617 0-9.1141 5.6734v28.916h-6.7715v-39.604z" style="fill:#fff;stroke-width:15.937" aria-label="em"/>
    </g>
   </g>
  </g>
 </g>
</svg>
